<mxfile host="app.diagrams.net" modified="2020-06-02T15:43:43.577Z" agent="5.0 (Windows)" etag="3X2uFkchQEXQwjUBwROk" version="13.1.13" type="github">
  <diagram id="5YTd6HPiCCN_LFdmrXuX" name="Page-1">
    <mxGraphModel dx="1132" dy="763" grid="1" gridSize="10" guides="1" tooltips="1" connect="1" arrows="1" fold="1" page="1" pageScale="1" pageWidth="827" pageHeight="1169" math="0" shadow="0">
      <root>
        <mxCell id="0" />
        <mxCell id="1" parent="0" />
        <mxCell id="4vxbuee-sdpMc3VaT_km-1" value="" style="rounded=0;whiteSpace=wrap;html=1;" vertex="1" parent="1">
          <mxGeometry x="200" y="320" width="440" height="240" as="geometry" />
        </mxCell>
        <mxCell id="4vxbuee-sdpMc3VaT_km-2" value="" style="verticalLabelPosition=bottom;html=1;verticalAlign=top;align=center;shape=mxgraph.floorplan.wall;fillColor=#000000;rotation=90;" vertex="1" parent="1">
          <mxGeometry x="176" y="435" width="50" height="10" as="geometry" />
        </mxCell>
        <mxCell id="4vxbuee-sdpMc3VaT_km-3" value="" style="verticalLabelPosition=bottom;html=1;verticalAlign=top;align=center;shape=mxgraph.floorplan.wall;fillColor=#000000;rotation=0;" vertex="1" parent="1">
          <mxGeometry x="270" y="316" width="50" height="10" as="geometry" />
        </mxCell>
        <mxCell id="4vxbuee-sdpMc3VaT_km-4" value="" style="rounded=0;whiteSpace=wrap;html=1;" vertex="1" parent="1">
          <mxGeometry x="200" y="630" width="440" height="240" as="geometry" />
        </mxCell>
        <mxCell id="4vxbuee-sdpMc3VaT_km-5" value="" style="verticalLabelPosition=bottom;html=1;verticalAlign=top;align=center;shape=mxgraph.floorplan.stairs;" vertex="1" parent="1">
          <mxGeometry x="300" y="810" width="114" height="60" as="geometry" />
        </mxCell>
        <mxCell id="4vxbuee-sdpMc3VaT_km-7" value="" style="verticalLabelPosition=bottom;html=1;verticalAlign=top;align=center;shape=mxgraph.floorplan.stairs;rotation=-180;" vertex="1" parent="1">
          <mxGeometry x="414" y="630" width="84" height="60" as="geometry" />
        </mxCell>
        <mxCell id="4vxbuee-sdpMc3VaT_km-8" value="" style="rounded=0;whiteSpace=wrap;html=1;strokeColor=#000000;fillColor=#000000;" vertex="1" parent="1">
          <mxGeometry x="368" y="320" width="46" height="100" as="geometry" />
        </mxCell>
        <mxCell id="4vxbuee-sdpMc3VaT_km-9" value="" style="verticalLabelPosition=bottom;html=1;verticalAlign=top;align=center;shape=mxgraph.floorplan.stairs;rotation=-180;" vertex="1" parent="1">
          <mxGeometry x="414" y="320" width="160" height="60" as="geometry" />
        </mxCell>
        <mxCell id="4vxbuee-sdpMc3VaT_km-10" value="" style="verticalLabelPosition=bottom;html=1;verticalAlign=top;align=center;shape=mxgraph.floorplan.stairs;" vertex="1" parent="1">
          <mxGeometry x="254" y="500" width="160" height="60" as="geometry" />
        </mxCell>
        <mxCell id="4vxbuee-sdpMc3VaT_km-17" value="z" style="triangle;whiteSpace=wrap;html=1;strokeColor=#000000;fillColor=#000000;rotation=135;" vertex="1" parent="1">
          <mxGeometry x="196" y="526.57" width="24.83" height="48.67" as="geometry" />
        </mxCell>
        <mxCell id="4vxbuee-sdpMc3VaT_km-18" value="" style="triangle;whiteSpace=wrap;html=1;strokeColor=#000000;fillColor=#000000;rotation=45;" vertex="1" parent="1">
          <mxGeometry x="618" y="527.0000000000001" width="24.83" height="48.67" as="geometry" />
        </mxCell>
        <mxCell id="4vxbuee-sdpMc3VaT_km-19" value="" style="verticalLabelPosition=bottom;html=1;verticalAlign=top;align=center;shape=mxgraph.floorplan.wall;fillColor=#000000;rotation=0;" vertex="1" parent="1">
          <mxGeometry x="531" y="554" width="50" height="10" as="geometry" />
        </mxCell>
        <mxCell id="4vxbuee-sdpMc3VaT_km-22" value="" style="endArrow=none;html=1;strokeWidth=2;entryX=0.983;entryY=-0.007;entryDx=0;entryDy=0;entryPerimeter=0;exitX=-0.012;exitY=-0.007;exitDx=0;exitDy=0;exitPerimeter=0;strokeColor=#FF3333;" edge="1" parent="1" source="4vxbuee-sdpMc3VaT_km-7" target="4vxbuee-sdpMc3VaT_km-7">
          <mxGeometry width="50" height="50" relative="1" as="geometry">
            <mxPoint x="470.1200000000001" y="690" as="sourcePoint" />
            <mxPoint x="470" y="810" as="targetPoint" />
          </mxGeometry>
        </mxCell>
        <mxCell id="4vxbuee-sdpMc3VaT_km-23" value="" style="endArrow=none;html=1;strokeWidth=2;exitX=-0.012;exitY=-0.007;exitDx=0;exitDy=0;exitPerimeter=0;strokeColor=#FF3333;" edge="1" parent="1">
          <mxGeometry width="50" height="50" relative="1" as="geometry">
            <mxPoint x="413.57800000000003" y="810.0000000000001" as="sourcePoint" />
            <mxPoint x="300" y="810" as="targetPoint" />
          </mxGeometry>
        </mxCell>
        <mxCell id="4vxbuee-sdpMc3VaT_km-24" value="" style="endArrow=none;html=1;strokeWidth=2;entryX=0.983;entryY=-0.007;entryDx=0;entryDy=0;entryPerimeter=0;strokeColor=#FF3333;" edge="1" parent="1">
          <mxGeometry width="50" height="50" relative="1" as="geometry">
            <mxPoint x="498" y="690" as="sourcePoint" />
            <mxPoint x="497.4179999999999" y="630" as="targetPoint" />
          </mxGeometry>
        </mxCell>
        <mxCell id="4vxbuee-sdpMc3VaT_km-26" value="" style="endArrow=none;html=1;strokeWidth=2;strokeColor=#FF3333;" edge="1" parent="1">
          <mxGeometry width="50" height="50" relative="1" as="geometry">
            <mxPoint x="300.00000000000006" y="870" as="sourcePoint" />
            <mxPoint x="300.42" y="810" as="targetPoint" />
          </mxGeometry>
        </mxCell>
        <mxCell id="4vxbuee-sdpMc3VaT_km-30" value="" style="verticalLabelPosition=bottom;html=1;verticalAlign=top;align=center;shape=mxgraph.floorplan.stairs;rotation=90;" vertex="1" parent="1">
          <mxGeometry x="253.25" y="759.25" width="46" height="47.5" as="geometry" />
        </mxCell>
        <mxCell id="4vxbuee-sdpMc3VaT_km-32" value="" style="verticalLabelPosition=bottom;html=1;verticalAlign=top;align=center;shape=mxgraph.floorplan.stairs;rotation=270;" vertex="1" parent="1">
          <mxGeometry x="555" y="735" width="121" height="49" as="geometry" />
        </mxCell>
        <mxCell id="4vxbuee-sdpMc3VaT_km-33" value="z" style="triangle;whiteSpace=wrap;html=1;strokeColor=#000000;fillColor=#000000;rotation=135;" vertex="1" parent="1">
          <mxGeometry x="197" y="836" width="24.83" height="48.67" as="geometry" />
        </mxCell>
        <mxCell id="4vxbuee-sdpMc3VaT_km-34" value="" style="triangle;whiteSpace=wrap;html=1;strokeColor=#000000;fillColor=#000000;rotation=45;" vertex="1" parent="1">
          <mxGeometry x="619" y="837.0000000000001" width="24.83" height="48.67" as="geometry" />
        </mxCell>
        <mxCell id="4vxbuee-sdpMc3VaT_km-36" value="" style="verticalLabelPosition=bottom;html=1;verticalAlign=top;align=center;shape=mxgraph.floorplan.wall;fillColor=#007FFF;rotation=0;" vertex="1" parent="1">
          <mxGeometry x="210" y="625" width="50" height="10" as="geometry" />
        </mxCell>
        <mxCell id="4vxbuee-sdpMc3VaT_km-38" value="" style="verticalLabelPosition=bottom;html=1;verticalAlign=top;align=center;shape=mxgraph.floorplan.wall;fillColor=#007FFF;rotation=0;" vertex="1" parent="1">
          <mxGeometry x="309" y="625" width="50" height="10" as="geometry" />
        </mxCell>
        <mxCell id="4vxbuee-sdpMc3VaT_km-39" value="" style="verticalLabelPosition=bottom;html=1;verticalAlign=top;align=center;shape=mxgraph.floorplan.stairs;rotation=270;" vertex="1" parent="1">
          <mxGeometry x="166.25" y="723.75" width="121" height="51.5" as="geometry" />
        </mxCell>
        <mxCell id="4vxbuee-sdpMc3VaT_km-40" value="" style="endArrow=none;html=1;strokeWidth=2;exitX=-0.002;exitY=1.028;exitDx=0;exitDy=0;exitPerimeter=0;strokeColor=#FF3333;" edge="1" parent="1" source="4vxbuee-sdpMc3VaT_km-39">
          <mxGeometry width="50" height="50" relative="1" as="geometry">
            <mxPoint x="366.828" y="690" as="sourcePoint" />
            <mxPoint x="253" y="689" as="targetPoint" />
            <Array as="points">
              <mxPoint x="253" y="689" />
            </Array>
          </mxGeometry>
        </mxCell>
        <mxCell id="4vxbuee-sdpMc3VaT_km-41" value="" style="endArrow=none;html=1;strokeWidth=2;strokeColor=#FF3333;exitX=0.997;exitY=1.014;exitDx=0;exitDy=0;exitPerimeter=0;" edge="1" parent="1" source="4vxbuee-sdpMc3VaT_km-39">
          <mxGeometry width="50" height="50" relative="1" as="geometry">
            <mxPoint x="250" y="690" as="sourcePoint" />
            <mxPoint x="200" y="690" as="targetPoint" />
          </mxGeometry>
        </mxCell>
        <mxCell id="4vxbuee-sdpMc3VaT_km-42" value="" style="verticalLabelPosition=bottom;html=1;verticalAlign=top;align=center;shape=mxgraph.floorplan.stairs;rotation=-180;" vertex="1" parent="1">
          <mxGeometry x="551" y="821" width="40" height="49" as="geometry" />
        </mxCell>
        <mxCell id="4vxbuee-sdpMc3VaT_km-43" value="" style="endArrow=none;html=1;strokeWidth=2;strokeColor=#FF3333;" edge="1" parent="1">
          <mxGeometry width="50" height="50" relative="1" as="geometry">
            <mxPoint x="414.12" y="690.0000000000001" as="sourcePoint" />
            <mxPoint x="414" y="810.0000000000001" as="targetPoint" />
          </mxGeometry>
        </mxCell>
        <mxCell id="4vxbuee-sdpMc3VaT_km-20" value="" style="endArrow=none;html=1;strokeWidth=2;strokeColor=#FF3333;" edge="1" parent="1">
          <mxGeometry width="50" height="50" relative="1" as="geometry">
            <mxPoint x="591.12" y="699.5" as="sourcePoint" />
            <mxPoint x="591" y="819.5" as="targetPoint" />
          </mxGeometry>
        </mxCell>
        <mxCell id="4vxbuee-sdpMc3VaT_km-44" value="" style="endArrow=none;html=1;strokeWidth=2;strokeColor=#FF3333;exitX=0.999;exitY=0.978;exitDx=0;exitDy=0;exitPerimeter=0;" edge="1" parent="1" source="4vxbuee-sdpMc3VaT_km-32">
          <mxGeometry width="50" height="50" relative="1" as="geometry">
            <mxPoint x="639.221" y="698.0029999999999" as="sourcePoint" />
            <mxPoint x="590" y="699" as="targetPoint" />
          </mxGeometry>
        </mxCell>
        <mxCell id="4vxbuee-sdpMc3VaT_km-47" value="" style="verticalLabelPosition=bottom;html=1;verticalAlign=top;align=center;shape=mxgraph.floorplan.wall;fillColor=#000000;rotation=90;" vertex="1" parent="1">
          <mxGeometry x="389" y="744.5" width="50" height="10" as="geometry" />
        </mxCell>
      </root>
    </mxGraphModel>
  </diagram>
</mxfile>
